# xmcd
#
# Track frame offsets: 
#        150
#        31645
#        64520
#        106200
#        155675
#        214512
#        251752
#
# Disc length: 3922 seconds
#
# Revision: 0
# Processed by: cddbd v1.5.1PL0 Copyright (c) Steve Scherf et al.
# Submitted via: ExactAudioCopy v0.95a5
#
DISCID=520f5007
DTITLE=Songs For Layla - CD1 - Eric Clapton
DYEAR=1992
DGENRE=Blues
TTITLE0=No Alibis
TTITLE1=Can't Find My Way Home
TTITLE2=Before You Accuse Me
TTITLE3=Cocaine
TTITLE4=Layla
TTITLE5=Crossroads
TTITLE6=I Shot The Sheriff
EXTD=
EXTT0=
EXTT1=
EXTT2=
EXTT3=
EXTT4=
EXTT5=
EXTT6=
PLAYORDER=
